<svg
    xmlns="http://www.w3.org/2000/svg"
    viewBox="0 0 100 100"
    id="ic_key">
    <path
        id="path_1"
        d="M48.58 0.15C48 0.41 46.88 1.6 43.35 5.71l-2.93 3.41-0.13 1.53C40.16 12.1 39.82 26.9 39.5 45.5l-0.15 8.64-1.94 1.03c-6.91 3.65-11.3 9.3-12.96 16.68-0.45 1.98-0.5 7.12-0.1 9 0.66 3.15 2.1 6.53 3.86 9.1 1.2 1.74 4.13 4.67 5.82 5.81 4.67 3.16 10.76 4.71 16.07 4.11 3.08-0.35 5.49-1 7.97-2.17 2.85-1.34 4.6-2.58 6.97-4.94 3.29-3.26 5.1-6.42 6.35-11.1 0.5-1.88 0.57-2.6 0.57-5.63s-0.08-3.77-0.6-5.73c-0.62-2.34-2.1-5.66-3.33-7.46-1.04-1.52-3.89-4.4-5.6-5.66-0.8-0.59-2.23-1.49-3.18-2l-1.71-0.93 0.11-7.66 0.12-7.66-2.34-2.21-2.34-2.21 2.42-2.3c3.22-3.06 3.22-3.11-0.07-6.37l-2.13-2.1 2.32-2.2c1.98-1.86 2.35-2.31 2.46-3.05 0.13-0.85 0.1-0.89-2.24-3.2l-2.36-2.32 2.38-2.21c2.15-2 2.37-2.28 2.37-3 0-0.44-0.16-1.05-0.36-1.35-0.2-0.3-1.93-1.83-3.86-3.39-3.55-2.87-4.4-3.32-5.44-2.87ZM10.32 16.84l-6.27 8.98L0 31.6l0.85 1.29c1.38 2.07 11.38 16.3 11.67 16.58 0.2 0.2 0.88-0.14 2.96-1.51 1.49-0.98 2.67-1.9 2.64-2.04-0.04-0.14-2.25-3.37-4.9-7.18-2.66-3.81-4.84-6.99-4.84-7.06 0-0.08 2.16-3.23 4.8-7.02 2.64-3.78 4.87-7 4.97-7.15 0.11-0.19-0.72-0.86-2.57-2.08-1.5-0.99-2.8-1.8-2.88-1.79-0.08 0-1.15 1.44-2.38 3.2Zm10.62 5.64c-3.43 4.87-6.27 8.95-6.3 9.07-0.08 0.28 12.23 17.79 12.62 17.94 0.3 0.11 5.45-3.18 5.44-3.48 0-0.1-2.22-3.35-4.93-7.24-2.71-3.88-4.87-7.16-4.8-7.29l4.94-7.1c2.64-3.79 4.8-6.97 4.8-7.08-0.01-0.17-5.17-3.67-5.42-3.67-0.05 0-2.91 3.99-6.35 8.85Zm26.5-8.35c0.29 0.4 0.36 1.24 0.36 4.43 0 7-0.5 33.78-0.65 33.93-0.08 0.07-0.79 0.2-1.57 0.28l-1.43 0.14 0.14-7.13 0.37-19.12c0.22-11.8 0.23-12.01 0.7-12.52 0.63-0.66 1.62-0.67 2.08 0Zm22.6 1.24c-1.45 0.96-2.64 1.82-2.65 1.92 0 0.1 2.22 3.37 4.94 7.27l4.95 7.1-0.4 0.58c-6.52 9.31-9.32 13.37-9.42 13.61-0.07 0.2 0.85 0.94 2.64 2.12l2.75 1.8 1.94-2.74c9.18-13.01 10.78-15.36 10.65-15.58-0.46-0.77-12.55-17.81-12.65-17.81-0.06 0-1.3 0.78-2.75 1.73Zm14.6-0.03c-1.44 0.94-2.61 1.84-2.61 1.99 0 0.15 2.13 3.35 4.75 7.1 2.61 3.75 4.8 6.93 4.85 7.07 0.06 0.14-2.13 3.46-4.87 7.38-2.73 3.93-4.9 7.2-4.83 7.27 0.07 0.08 1.32 0.92 2.76 1.86 2.02 1.33 2.69 1.67 2.89 1.46 0.65-0.66 12.48-17.71 12.42-17.9-0.13-0.37-12.45-17.92-12.6-17.93-0.08 0-1.32 0.76-2.76 1.7ZM50.72 81.07c2.3 1.18 3.58 3.02 3.78 5.4 0.27 3.37-1.81 6.15-5.24 7-1.35 0.32-1.58 0.32-2.94-0.01-1.84-0.45-3.1-1.29-4.06-2.68-2.43-3.52-0.74-8.4 3.44-9.95 1.16-0.43 3.98-0.3 5.02 0.24Z"
        fill="#ffffff"/>
</svg>
