<svg width="143" height="40" fill="none" xmlns="http://www.w3.org/2000/svg"><path d="M136.964 0H5.268C2.358 0 0 2.239 0 5v30c0 2.761 2.358 5 5.268 5h131.696c2.91 0 5.268-2.239 5.268-5V5c0-2.761-2.358-5-5.268-5z" fill="#404040"></path><path d="M71.79 21.75a4.66 4.66 0 00-2.491.723 4.315 4.315 0 00-1.649 1.916 4.06 4.06 0 00-.25 2.462 4.2 4.2 0 001.235 2.178 4.57 4.57 0 002.3 1.161 4.711 4.711 0 002.593-.248 4.445 4.445 0 002.01-1.574A4.107 4.107 0 0076.29 26a4.003 4.003 0 00-.325-1.64 4.181 4.181 0 00-.975-1.39 4.444 4.444 0 00-1.469-.919 4.624 4.624 0 00-1.73-.301zm0 6.83a2.836 2.836 0 01-1.558-.345 2.636 2.636 0 01-1.084-1.117 2.463 2.463 0 01-.234-1.502c.082-.512.325-.988.696-1.367.372-.38.855-.643 1.387-.758a2.856 2.856 0 011.595.113c.508.189.944.518 1.252.946.308.427.474.932.475 1.45.017.328-.036.656-.154.964a2.444 2.444 0 01-.537.832c-.236.24-.52.434-.835.568a2.708 2.708 0 01-1.003.216zm-9.819-6.83a4.66 4.66 0 00-2.492.723 4.314 4.314 0 00-1.648 1.916 4.059 4.059 0 00-.25 2.462 4.2 4.2 0 001.234 2.178c.63.595 1.43.999 2.301 1.161a4.711 4.711 0 002.593-.248 4.444 4.444 0 002.01-1.574A4.107 4.107 0 0066.47 26a4.003 4.003 0 00-.325-1.64 4.181 4.181 0 00-.974-1.39 4.443 4.443 0 00-1.469-.919 4.625 4.625 0 00-1.73-.301zm0 6.83a2.836 2.836 0 01-1.558-.345 2.636 2.636 0 01-1.084-1.117 2.463 2.463 0 01-.235-1.502c.083-.512.326-.988.697-1.367.372-.38.855-.643 1.386-.758a2.856 2.856 0 011.596.113c.508.189.944.518 1.252.946.308.427.473.932.475 1.45.016.328-.036.656-.154.964a2.444 2.444 0 01-.537.832c-.236.24-.52.434-.836.568a2.708 2.708 0 01-1.002.216zm-11.674-5.52v1.8h4.552a3.682 3.682 0 01-1.054 2.27 4.682 4.682 0 01-1.612 1.014 4.88 4.88 0 01-1.907.306 5.198 5.198 0 01-3.576-1.406 4.68 4.68 0 01-1.48-3.394 4.68 4.68 0 011.48-3.394 5.198 5.198 0 013.576-1.406 5.034 5.034 0 013.456 1.29l1.338-1.27a6.678 6.678 0 00-2.193-1.367 6.953 6.953 0 00-2.58-.453 7.3 7.3 0 00-2.747.427A7.024 7.024 0 0045.2 18.89a6.614 6.614 0 00-1.58 2.175 6.322 6.322 0 00-.556 2.589c0 .89.189 1.77.556 2.589a6.613 6.613 0 001.58 2.175 7.024 7.024 0 002.351 1.414c.877.316 1.81.462 2.747.427.902.034 1.8-.113 2.637-.432a6.427 6.427 0 002.22-1.418c1.107-1.154 1.696-2.67 1.644-4.23a5.961 5.961 0 00-.095-1.12h-6.406zm47.738 1.4a4.018 4.018 0 00-1.474-1.921 4.359 4.359 0 00-2.361-.79 4.41 4.41 0 00-1.676.328 4.22 4.22 0 00-1.401.931c-.395.399-.7.87-.896 1.384A3.814 3.814 0 0089.985 26a4.086 4.086 0 00.862 2.54 4.46 4.46 0 002.293 1.545c.92.267 1.906.244 2.811-.065a4.428 4.428 0 002.21-1.65l-1.528-1c-.227.36-.55.658-.936.863a2.646 2.646 0 01-1.266.307 2.359 2.359 0 01-1.295-.326 2.186 2.186 0 01-.875-.964l5.995-2.35-.221-.44zm-6.111 1.42a2.23 2.23 0 01.13-.916c.107-.295.275-.566.494-.798a2.46 2.46 0 01.78-.553c.296-.133.618-.21.945-.223.34-.02.678.056.972.218.294.162.532.403.683.692l-4.004 1.58zM87.056 30h1.97V17.5h-1.97V30zm-3.223-7.3h-.074a3.095 3.095 0 00-1.065-.745 3.24 3.24 0 00-1.295-.255 4.596 4.596 0 00-3.032 1.317 4.147 4.147 0 00-1.239 2.938c0 1.094.444 2.146 1.239 2.938a4.596 4.596 0 003.032 1.317c.447.008.89-.077 1.298-.25.408-.172.77-.429 1.062-.75h.074v.61c0 1.63-.917 2.5-2.392 2.5a2.578 2.578 0 01-1.374-.428 2.382 2.382 0 01-.891-1.082l-1.707.67a4.05 4.05 0 001.573 1.846c.71.45 1.546.685 2.399.674 2.307 0 4.214-1.29 4.214-4.43V22h-1.822v.7zm-2.266 5.88a2.78 2.78 0 01-1.811-.808 2.51 2.51 0 01-.738-1.767c0-.656.264-1.288.738-1.767a2.78 2.78 0 011.811-.808c.338.014.669.092.974.23.305.137.577.332.802.572.224.24.395.52.502.823.108.304.15.625.125.945.028.32-.012.643-.118.95a2.352 2.352 0 01-.502.828 2.5 2.5 0 01-.805.574 2.615 2.615 0 01-.978.228zm25.697-11.08h-4.72V30h1.97v-4.74h2.75a4.3 4.3 0 001.656-.211 4.145 4.145 0 001.43-.822c.412-.364.741-.804.965-1.294a3.718 3.718 0 000-3.106 3.89 3.89 0 00-.965-1.295 4.145 4.145 0 00-1.43-.82 4.3 4.3 0 00-1.656-.212zm0 6h-2.75v-4.26h2.792c.296 0 .589.055.863.163.274.107.522.265.731.464.21.198.376.434.489.694a2.034 2.034 0 010 1.638c-.113.26-.279.495-.489.694a2.255 2.255 0 01-.731.464 2.362 2.362 0 01-.863.163l-.042-.02zm12.158-1.79a3.835 3.835 0 00-2.055.456 3.573 3.573 0 00-1.453 1.454l1.738.69c.176-.3.44-.547.759-.708.32-.162.682-.232 1.043-.202.25-.028.503-.008.745.058.242.067.468.178.664.328.196.15.359.335.479.545.12.21.194.441.219.679v.12a4.597 4.597 0 00-2.054-.48c-1.876 0-3.793 1-3.793 2.82.018.387.118.766.295 1.116.176.349.424.661.729.918a3.09 3.09 0 001.05.575c.387.123.796.17 1.202.14.495.027.987-.072 1.428-.287a2.747 2.747 0 001.08-.932h.063v1h1.896v-4.81c0-2.19-1.748-3.46-3.993-3.46l-.042-.02zm-.242 6.85c-.643 0-1.538-.31-1.538-1.06 0-1 1.117-1.34 2.107-1.34a3.649 3.649 0 011.791.42 2.224 2.224 0 01-.764 1.413 2.45 2.45 0 01-1.554.587l-.042-.02zM130.369 22l-2.255 5.42h-.063L125.712 22h-2.107l3.508 7.58-2.001 4.21h2.054L132.56 22h-2.191zm-17.7 8h1.96V17.5h-1.96V30z" fill="#fff"></path><path d="M11 7.54c-.348.39-.525.89-.495 1.4v22.12c-.036.51.142 1.014.495 1.4l.073.08 13.054-12.39v-.3L11.074 7.47 11 7.54z" fill="url(#paint0_linear_3896_15242)"></path><path d="M28.445 24.28l-4.32-4.13v-.3l4.32-4.13.095.06 5.172 2.78c1.475.79 1.475 2.09 0 2.89l-5.152 2.78-.115.05z" fill="url(#paint1_linear_3896_15242)"></path><path d="M28.574 24.22L24.127 20 11 32.46c.298.252.679.396 1.077.409.399.013.789-.107 1.104-.339l15.393-8.31z" fill="url(#paint2_linear_3896_15242)"></path><path d="M28.574 15.78L13.18 7.48a1.757 1.757 0 00-1.102-.347c-.399.011-.781.155-1.079.407L24.128 20l4.446-4.22z" fill="url(#paint3_linear_3896_15242)"></path><path opacity=".2" d="M28.447 24.13l-15.266 8.25a1.811 1.811 0 01-1.054.335c-.38 0-.75-.118-1.053-.335l-.074.07.074.08c.303.217.673.335 1.053.335.38 0 .75-.118 1.054-.335l15.393-8.31-.127-.09z" fill="#000"></path><path opacity=".12" d="M11 32.32a1.932 1.932 0 01-.463-1.41v.15c-.036.51.142 1.014.495 1.4l.074-.07-.105-.07zM33.713 21.3l-5.268 2.83.095.09 5.173-2.78c.306-.123.57-.321.767-.574a1.7 1.7 0 00.35-.866c-.066.285-.201.55-.395.776a1.951 1.951 0 01-.722.524z" fill="#000"></path><path opacity=".25" d="M13.18 7.62L33.714 18.7c.28.119.528.298.722.524.194.226.329.491.395.776a1.7 1.7 0 00-.35-.866 1.832 1.832 0 00-.767-.574L13.18 7.48c-1.464-.8-2.676-.14-2.676 1.46v.15c.032-1.6 1.212-2.26 2.676-1.47z" fill="#fff"></path><path d="M44.363 14.27h-.77v-2h.654a2.81 2.81 0 00.648-1.055c.133-.392.174-.806.121-1.215V7h4.214v5.26h.706v2h-.78V13h-4.793v1.27zM45.827 10a3.842 3.842 0 01-.6 2.29h3.16V7.74h-2.56V10zM56.271 12.22a3.282 3.282 0 01-1.06.674 3.416 3.416 0 01-2.504 0 3.283 3.283 0 01-1.06-.674 3.126 3.126 0 01-.94-2.22c0-.827.337-1.622.94-2.22a3.283 3.283 0 011.06-.674 3.418 3.418 0 012.504 0c.397.156.757.385 1.06.674.305.292.544.639.706 1.02.16.381.24.79.232 1.2.012.411-.064.82-.226 1.203a2.994 2.994 0 01-.712 1.017zm-4.035-.5c.222.219.49.392.785.51.295.116.612.174.933.17.32.006.638-.051.934-.168.295-.117.562-.292.783-.512a2.47 2.47 0 00.707-1.72 2.47 2.47 0 00-.707-1.72 2.315 2.315 0 00-.783-.512 2.415 2.415 0 00-.934-.168 2.449 2.449 0 00-.933.171c-.296.117-.563.29-.785.51A2.498 2.498 0 0051.54 10c0 .634.248 1.247.696 1.72zM61.299 13.13a3.31 3.31 0 01-1.245-.222 3.176 3.176 0 01-1.052-.668 3.155 3.155 0 01-.947-2.24c0-.835.339-1.637.947-2.24.305-.293.67-.523 1.072-.676a3.312 3.312 0 011.267-.214c.44-.012.879.072 1.28.245.402.174.757.432 1.038.755l-.559.52a2.093 2.093 0 00-.78-.588 2.205 2.205 0 00-.98-.182 2.483 2.483 0 00-.947.163c-.3.115-.573.288-.801.507a2.499 2.499 0 00-.705 1.73c0 .64.251 1.257.705 1.73.228.22.5.392.801.507.301.115.623.17.948.163.362-.01.717-.095 1.041-.248.324-.154.609-.373.834-.642l.57.53a3.144 3.144 0 01-1.054.78 3.405 3.405 0 01-1.433.29zM67.093 13h-.811V7.74h-1.77V7h4.34v.74h-1.759V13zM74.437 7l-2.392 5.06a1.426 1.426 0 01-.304.552 1.52 1.52 0 01-.52.38 1.596 1.596 0 01-1.283.008l.21-.71a.944.944 0 00.422.11.79.79 0 00.443-.11.912.912 0 00.284-.38l.232-.48L69.422 7h.959l1.559 3.44L73.478 7h.959zM75.352 13V7h4.572v6h-.811V7.74h-2.95V13h-.811zM81.367 13V7h.811v2.57h3.161V7h.822v6h-.822v-2.71h-3.16V13h-.812zM92.778 12.22a3.294 3.294 0 01-1.063.675 3.428 3.428 0 01-2.51 0 3.293 3.293 0 01-1.063-.675 3.126 3.126 0 01-.939-2.22c0-.827.337-1.622.94-2.22a3.283 3.283 0 011.06-.674 3.418 3.418 0 012.504 0c.397.156.757.385 1.06.674.599.6.932 1.394.932 2.22 0 .826-.334 1.62-.931 2.22h.01zm-4.035-.5c.22.22.487.395.783.512.296.117.614.174.934.168.32.004.638-.054.933-.17.296-.118.563-.291.784-.51a2.498 2.498 0 00.696-1.72c0-.635-.248-1.248-.696-1.72a2.347 2.347 0 00-.784-.509 2.449 2.449 0 00-.933-.17 2.416 2.416 0 00-.934.167 2.314 2.314 0 00-.783.512 2.47 2.47 0 00-.707 1.72c0 .637.252 1.251.707 1.72zM97.023 13V7h2.287c.474-.004.932.16 1.285.46.176.145.316.325.411.527.095.202.141.422.137.643.002.27-.078.534-.232.76a1.471 1.471 0 01-.621.49c.304.099.571.28.769.52.193.245.297.544.295.85.005.23-.043.46-.142.67-.098.211-.244.399-.427.55-.366.323-.85.499-1.349.49l-2.413.04zm.812-3.43h1.475a.96.96 0 00.403-.065.914.914 0 00.334-.225.88.88 0 00.285-.63.89.89 0 00-.563-.865.939.939 0 00-.386-.065h-1.517l-.031 1.85zm0 2.69h1.643c.143.005.285-.02.416-.074a.976.976 0 00.343-.236.973.973 0 00.284-.68.97.97 0 00-.295-.67 1.05 1.05 0 00-.36-.234 1.104 1.104 0 00-.43-.076h-1.601v1.97z" fill="#fff" stroke="#fff" stroke-width=".2" stroke-miterlimit="10"></path><defs><linearGradient id="paint0_linear_3896_15242" x1="22.968" y1="8.71" x2="6.211" y2="26.365" gradientUnits="userSpaceOnUse"><stop stop-color="#00A0FF"></stop><stop offset=".01" stop-color="#00A1FF"></stop><stop offset=".26" stop-color="#00BEFF"></stop><stop offset=".51" stop-color="#00D2FF"></stop><stop offset=".76" stop-color="#00DFFF"></stop><stop offset="1" stop-color="#00E3FF"></stop></linearGradient><linearGradient id="paint1_linear_3896_15242" x1="35.641" y1="20" x2="10.155" y2="20" gradientUnits="userSpaceOnUse"><stop stop-color="#FFE000"></stop><stop offset=".41" stop-color="#FFBD00"></stop><stop offset=".78" stop-color="orange"></stop><stop offset="1" stop-color="#FF9C00"></stop></linearGradient><linearGradient id="paint2_linear_3896_15242" x1="26.161" y1="22.3" x2="3.431" y2="46.237" gradientUnits="userSpaceOnUse"><stop stop-color="#FF3A44"></stop><stop offset="1" stop-color="#C31162"></stop></linearGradient><linearGradient id="paint3_linear_3896_15242" x1="7.692" y1=".18" x2="17.838" y2="10.87" gradientUnits="userSpaceOnUse"><stop stop-color="#32A071"></stop><stop offset=".07" stop-color="#2DA771"></stop><stop offset=".48" stop-color="#15CF74"></stop><stop offset=".8" stop-color="#06E775"></stop><stop offset="1" stop-color="#00F076"></stop></linearGradient></defs></svg>